HIERARCHY
ROOT reference
{
  OFFSET 0 0 0
  CHANNELS 6 Xposition Yposition Zposition Zrotation Xrotation Yrotation
  JOINT Hips
  {
    OFFSET -9.48665 82.8606 81.0172
    CHANNELS 6 Xposition Yposition Zposition Zrotation Xrotation Yrotation
    JOINT Spine
    {
      OFFSET 0 7.52385 0
      CHANNELS 6 Xposition Yposition Zposition Zrotation Xrotation Yrotation
      JOINT Spine1
      {
        OFFSET 0 21.7843 0
        CHANNELS 6 Xposition Yposition Zposition Zrotation Xrotation Yrotation
        JOINT Neck
        {
          OFFSET 0 21.6948 1.97225
          CHANNELS 6 Xposition Yposition Zposition Zrotation Xrotation Yrotation
          JOINT Head
          {
            OFFSET 0 12.8456 -1.83509
            CHANNELS 6 Xposition Yposition Zposition Zrotation Xrotation Yrotation
            End Site
            {
              OFFSET 0 22.9386 0
            }
          }
        }
        JOINT LeftShoulder
        {
          OFFSET 3.65748 19.7052 -0.211895
          CHANNELS 6 Xposition Yposition Zposition Zrotation Xrotation Yrotation
          JOINT LeftArm
          {
            OFFSET 11.1953 0 0
            CHANNELS 6 Xposition Yposition Zposition Zrotation Xrotation Yrotation
            JOINT LeftForeArm
            {
              OFFSET 29.6607 0 0
              CHANNELS 6 Xposition Yposition Zposition Zrotation Xrotation Yrotation
              JOINT LeftHand
              {
                OFFSET 23.3476 0 0
                CHANNELS 6 Xposition Yposition Zposition Zrotation Xrotation Yrotation
                End Site
                {
                  OFFSET 13.7631 0 0
                }
              }
            }
          }
        }
        JOINT RightShoulder
        {
          OFFSET -3.68053 19.7052 -0.211895
          CHANNELS 6 Xposition Yposition Zposition Zrotation Xrotation Yrotation
          JOINT RightArm
          {
            OFFSET -11.1953 0 0
            CHANNELS 6 Xposition Yposition Zposition Zrotation Xrotation Yrotation
            JOINT RightForeArm
            {
              OFFSET -29.6607 0 0
              CHANNELS 6 Xposition Yposition Zposition Zrotation Xrotation Yrotation
              JOINT RightHand
              {
                OFFSET -23.3476 0 0
                CHANNELS 6 Xposition Yposition Zposition Zrotation Xrotation Yrotation
                End Site
                {
                  OFFSET -13.7631 0 0
                }
              }
            }
          }
        }
      }
    }
    JOINT LeftUpLeg
    {
      OFFSET 9.17543 0 0
      CHANNELS 6 Xposition Yposition Zposition Zrotation Xrotation Yrotation
      JOINT LeftLeg
      {
        OFFSET 0 -39.1216 0
        CHANNELS 6 Xposition Yposition Zposition Zrotation Xrotation Yrotation
        JOINT LeftFoot
        {
          OFFSET 0 -35.3569 0
          CHANNELS 6 Xposition Yposition Zposition Zrotation Xrotation Yrotation
          JOINT LeftToeBase
          {
            OFFSET 0 -5.96403 13.7631
            CHANNELS 6 Xposition Yposition Zposition Zrotation Xrotation Yrotation
            End Site
            {
              OFFSET 0 0 3.67017
            }
          }
        }
      }
    }
    JOINT RightUpLeg
    {
      OFFSET -9.17543 0 0
      CHANNELS 6 Xposition Yposition Zposition Zrotation Xrotation Yrotation
      JOINT RightLeg
      {
        OFFSET 0 -39.1216 0
        CHANNELS 6 Xposition Yposition Zposition Zrotation Xrotation Yrotation
        JOINT RightFoot
        {
          OFFSET 0 -35.3569 0
          CHANNELS 6 Xposition Yposition Zposition Zrotation Xrotation Yrotation
          JOINT RightToeBase
          {
            OFFSET 0 -5.96403 13.7631
            CHANNELS 6 Xposition Yposition Zposition Zrotation Xrotation Yrotation
            End Site
            {
              OFFSET 0 0 3.67017
            }
          }
        }
      }
    }
  }
}
MOTION
Frames:	9
Frame Time:	0.004
0 0 0 0 0 -0 -14.9312 73.7669 -167.108 0.733501 -8.23803 -0.340863 1.77636e-015 7.52385 2.84217e-014 0.036554 11.4897 -8.71786 0 21.7843 0 -1.06688 13.4093 -8.5887 0 21.6948 1.97225 0.763959 12.7546 3.54115 -7.10543e-015 12.8456 -1.83509 -4.50454 10.0776 3.41396 3.65748 19.7052 -0.211895 -3.08342 15.3619 -9.39866 11.1953 0 0 -40.5009 33.7371 -19.0597 29.6607 0 0 23.1988 -23.8391 -40.753 23.3476 1.42109e-014 0 7.24675 -15.219 6.37546 -3.68053 19.7052 -0.211895 5.90312 21.1467 -3.7999 -11.1953 2.84217e-014 0 38.6941 50.5835 32.4402 -29.6607 -1.42109e-014 2.84217e-014 -10.9651 -15.2263 27.1382 -23.3476 1.42109e-014 0 0.717513 -12.636 2.25688 9.17543 0 0 -4.28464 12.4292 -0.088625 1.77636e-015 -39.1216 2.84217e-014 -2.56294 16.0933 0.190336 0 -35.3569 -2.84217e-014 7.69231 -24.507 11.2517 1.77636e-015 -5.96403 13.7631 9.93923e-017 -1.59028e-015 -1.59028e-015 -9.17543 0 0 -2.31815 -19.8198 2.8943 -3.55271e-015 -39.1216 1.42109e-014 9.22629 31.5153 -4.96706 0 -35.3569 -5.68434e-014 6.80315 -14.6661 -17.871 -7.10543e-015 -5.96403 13.7631 7.95139e-016 1.59028e-015 3.18055e-015 
0 0 0 0 0 -0 -14.951 73.7471 -166.77 0.761158 -8.29653 -0.326799 0 7.52385 0 0.017783 11.5179 -8.733 0 21.7843 0 -1.02151 13.4971 -8.61026 -1.42109e-014 21.6948 1.97225 0.764239 12.706 3.5385 0 12.8456 -1.83509 -4.53244 10.0999 3.41022 3.65748 19.7052 -0.211895 -3.08968 15.3962 -9.34179 11.1953 -1.42109e-014 0 -40.5317 33.8196 -19.064 29.6607 0 1.42109e-014 23.1278 -23.871 -40.6813 23.3476 -7.10543e-015 -3.55271e-015 7.53685 -15.269 6.54551 -3.68053 19.7052 -0.211895 5.92013 21.1376 -3.76791 -11.1953 0 0 38.6514 50.4944 32.4168 -29.6607 0 0 -10.9218 -15.1327 27.3245 -23.3476 -7.10543e-015 0 -0.551484 -12.5557 1.83072 9.17543 0 0 -4.27925 12.6191 -0.064639 0 -39.1216 0 -2.5951 16.3376 0.16463 0 -35.3569 2.84217e-014 7.84713 -24.4548 11.1507 -1.77636e-015 -5.96403 13.7631 9.93923e-017 2.38542e-015 1.59028e-015 -9.17543 0 0 -2.28529 -19.6319 2.93428 0 -39.1216 1.42109e-014 9.32719 31.6046 -5.23772 0 -35.3569 0 6.45013 -14.2213 -18.05 0 -5.96403 13.7631 3.97569e-016 1.59028e-015 -3.18055e-015 
0 0 0 0 0 -0 -14.9692 73.7177 -166.447 0.771578 -8.27393 -0.255254 -1.77636e-015 7.52385 -2.84217e-014 0.037063 11.5116 -8.76743 7.10543e-015 21.7843 0 -0.948488 13.5171 -8.65123 0 21.6948 1.97225 0.737145 12.7413 3.51418 -7.10543e-015 12.8456 -1.83509 -4.53539 10.0281 3.38297 3.65748 19.7052 -0.211895 -3.09905 15.421 -9.3258 11.1953 0 0 -40.6203 33.8348 -19.0284 29.6607 2.84217e-014 0 23.0775 -23.8492 -40.6049 23.3476 -1.42109e-014 0 7.49929 -15.2863 6.51111 -3.68053 19.7052 -0.211895 5.90801 21.1258 -3.75131 -11.1953 -1.42109e-014 -2.84217e-014 38.6504 50.4295 32.3835 -29.6607 1.42109e-014 0 -11.0045 -15.211 27.3814 -23.3476 7.10543e-015 -2.84217e-014 0.334481 -12.5947 2.14687 9.17543 -1.42109e-014 -2.84217e-014 -4.25967 12.684 -0.089375 -1.77636e-015 -39.1216 2.84217e-014 -2.59445 16.709 -0.309812 1.77636e-015 -35.3569 -2.84217e-014 7.9443 -24.5729 11.6574 1.77636e-015 -5.96403 13.7631 0 0 -0 -9.17543 -2.84217e-014 0 -2.28038 -19.5235 2.80466 -3.55271e-015 -39.1216 0 9.44867 31.7241 -5.38932 3.55271e-015 -35.3569 0 5.36464 -13.6593 -18.2265 -1.42109e-014 -5.96403 13.7631 1.19271e-015 -3.18055e-015 -0 
0 0 0 0 0 -0 -14.9848 73.6874 -166.123 0.785675 -8.26143 -0.173392 0 7.52385 0 0.052438 11.514 -8.79336 0 21.7843 2.84217e-014 -0.856721 13.542 -8.6863 0 21.6948 1.97225 0.733752 12.6931 3.51359 0 12.8456 -1.83509 -4.57873 10.0789 3.38178 3.65748 19.7052 -0.211895 -3.09885 15.4716 -9.32499 11.1953 0 0 -40.6685 33.8704 -19.0582 29.6607 0 1.42109e-014 23.121 -23.7989 -40.419 23.3476 0 3.55271e-015 7.2341 -15.2822 6.36962 -3.68053 19.7052 -0.211895 5.86568 21.0893 -3.74028 -11.1953 -2.84217e-014 0 38.6942 50.403 32.3241 -29.6607 -1.42109e-014 0 -11.0768 -15.2623 27.5287 -23.3476 7.10543e-015 2.84217e-014 -0.086627 -12.6219 1.97197 9.17543 1.42109e-014 0 -4.2209 12.7609 -0.130008 0 -39.1216 0 -2.63095 17.0249 -0.355274 -1.77636e-015 -35.3569 -2.84217e-014 7.89827 -24.7236 11.645 -3.55271e-015 -5.96403 13.7631 -2.98177e-016 0 -1.59028e-015 -9.17543 0 0 -2.28743 -19.3482 2.79987 3.55271e-015 -39.1216 0 9.64721 31.7408 -5.94701 0 -35.3569 0 3.87268 -13.0707 -18.0609 0 -5.96403 13.7631 1.59028e-015 3.18055e-015 9.54166e-015 
0 0 0 0 0 -0 -15.0107 73.6571 -165.802 0.784713 -8.22421 -0.09181 0 7.52385 0 0.104219 11.4773 -8.83287 0 21.7843 0 -0.832675 13.5928 -8.7231 0 21.6948 1.97225 0.797488 12.6346 3.50015 0 12.8456 -1.83509 -4.67679 10.131 3.36197 3.65748 19.7052 -0.211895 -3.07443 15.4797 -9.2668 11.1953 0 0 -40.7616 33.9856 -19.0158 29.6607 0 2.84217e-014 23.1571 -23.8256 -40.3648 23.3476 0 0 7.14712 -15.3116 6.40477 -3.68053 19.7052 -0.211895 5.86566 21.0592 -3.7415 -11.1953 0 -2.84217e-014 38.6346 50.4222 32.3601 -29.6607 -1.42109e-014 -2.84217e-014 -11.143 -15.3642 27.6005 -23.3476 0 0 0.227781 -12.6962 2.16656 9.17543 -1.42109e-014 2.84217e-014 -4.15983 12.7708 -0.173164 0 -39.1216 0 -2.65503 17.4235 -0.384726 0 -35.3569 2.84217e-014 7.87259 -24.8647 11.5648 0 -5.96403 13.7631 -1.98785e-016 3.97569e-016 -1.59028e-015 -9.17543 0 0 -2.26241 -19.2643 2.76313 -3.55271e-015 -39.1216 0 9.8013 31.9297 -6.25252 3.55271e-015 -35.3569 0 2.2932 -12.5115 -18.0227 0 -5.96403 13.7631 -7.95139e-016 -7.95139e-016 3.18055e-015 
0 0 0 0 0 -0 -15.0356 73.6234 -165.483 0.793103 -8.18192 -0.007649 -1.77636e-015 7.52385 -2.84217e-014 0.0960401 11.4617 -8.8566 0 21.7843 2.84217e-014 -0.707156 13.589 -8.76264 0 21.6948 1.97225 0.803995 12.6559 3.48338 7.10543e-015 12.8456 -1.83509 -4.75099 10.1094 3.33946 3.65748 19.7052 -0.211895 -3.10049 15.6046 -9.25263 11.1953 0 0 -40.7692 34.0284 -19.0778 29.6607 -2.84217e-014 0 23.1177 -23.8092 -40.2566 23.3476 0 3.55271e-015 7.12301 -15.3353 6.39326 -3.68053 19.7052 -0.211895 5.85341 21.0855 -3.75699 -11.1953 1.42109e-014 0 38.5344 50.3875 32.4017 -29.6607 1.42109e-014 0 -11.2264 -15.4235 27.7276 -23.3476 -7.10543e-015 -2.84217e-014 0.232709 -12.723 2.11844 9.17543 0 0 -4.09344 12.7565 -0.215383 0 -39.1216 -2.84217e-014 -2.71288 17.8697 -0.401437 -1.77636e-015 -35.3569 -2.84217e-014 8.49768 -24.6685 11.6036 -1.77636e-015 -5.96403 13.7631 1.49089e-016 3.97569e-016 -0 -9.17543 0 0 -2.24129 -19.1131 2.70501 3.55271e-015 -39.1216 0 9.89425 32.014 -6.46085 0 -35.3569 2.84217e-014 0.87194 -12.1421 -17.9447 0 -5.96403 13.7631 3.97569e-016 0 -3.18055e-015 
0 0 0 0 0 -0 -15.0627 73.5942 -165.152 0.821069 -8.16241 0.081174 1.77636e-015 7.52385 0 0.117408 11.4582 -8.87726 0 21.7843 0 -0.683704 13.6022 -8.78388 1.42109e-014 21.6948 1.97225 0.773116 12.6997 3.42714 0 12.8456 -1.83509 -4.67624 10.0257 3.28284 3.65748 19.7052 -0.211895 -3.08595 15.6263 -9.24201 11.1953 0 0 -40.9174 34.1398 -18.9065 29.6607 2.84217e-014 0 23.1311 -23.8174 -40.3265 23.3476 1.42109e-014 3.55271e-015 7.11112 -15.3177 6.49835 -3.68053 19.7052 -0.211895 5.89304 21.0693 -3.80214 -11.1953 0 0 38.5386 50.2899 32.384 -29.6607 0 -2.84217e-014 -11.2101 -15.3979 27.8934 -23.3476 -7.10543e-015 0 -0.720966 -12.6997 1.84395 9.17543 1.42109e-014 0 -4.05374 12.7884 -0.248567 -1.77636e-015 -39.1216 0 -2.74108 18.2579 -0.391569 0 -35.3569 2.84217e-014 8.5925 -24.7938 11.5241 3.55271e-015 -5.96403 13.7631 -4.96962e-017 3.97569e-016 -3.18055e-015 -9.17543 1.42109e-014 -2.84217e-014 -2.25635 -18.9347 2.46437 0 -39.1216 1.42109e-014 9.90343 32.1518 -6.55347 -3.55271e-015 -35.3569 0 -0.203182 -11.9795 -17.7513 0 -5.96403 13.7631 -3.97569e-016 7.95139e-016 3.18055e-015 
0 0 0 0 0 -0 -15.0897 73.5602 -164.826 0.844721 -8.12108 0.167348 -1.77636e-015 7.52385 0 0.109005 11.4217 -8.89233 0 21.7843 -2.84217e-014 -0.597425 13.6406 -8.80991 0 21.6948 1.97225 0.82926 12.6471 3.42285 0 12.8456 -1.83509 -4.76792 10.0944 3.2739 3.65748 19.7052 -0.211895 -3.08338 15.6633 -9.25137 11.1953 0 2.84217e-014 -41.0512 34.201 -18.8248 29.6607 0 0 23.1184 -23.7977 -40.2769 23.3476 -7.10543e-015 -3.55271e-015 7.08961 -15.3115 6.54038 -3.68053 19.7052 -0.211895 5.86251 20.9904 -3.76518 -11.1953 2.84217e-014 0 38.6553 50.2481 32.2259 -29.6607 0 2.84217e-014 -11.2718 -15.4675 28.037 -23.3476 0 0 -0.395211 -12.7357 1.99135 9.17543 -1.42109e-014 0 -4.00653 12.7711 -0.284916 0 -39.1216 2.84217e-014 -2.76336 18.7053 -0.418794 0 -35.3569 2.84217e-014 8.43793 -24.9369 11.4049 0 -5.96403 13.7631 9.93923e-017 -3.97569e-016 -0 -9.17543 0 0 -2.24937 -18.8141 2.43955 -3.55271e-015 -39.1216 0 10.0056 32.3413 -6.81904 3.55271e-015 -35.3569 0 -1.13299 -11.9637 -17.6592 0 -5.96403 13.7631 -3.97569e-016 7.95139e-016 3.18055e-015 
0 0 0 0 0 -0 -15.1178 73.5295 -164.501 0.870084 -8.08654 0.261024 0 7.52385 2.84217e-014 0.11655 11.4001 -8.90689 0 21.7843 -5.68434e-014 -0.537349 13.6784 -8.83073 0 21.6948 1.97225 0.888372 12.5679 3.40375 0 12.8456 -1.83509 -4.84916 10.1765 3.25041 3.65748 19.7052 -0.211895 -3.08499 15.6912 -9.23184 11.1953 1.42109e-014 0 -41.1316 34.2621 -18.8002 29.6607 -2.84217e-014 0 23.0134 -23.7556 -40.2531 23.3476 -7.10543e-015 0 7.17874 -15.3027 6.60204 -3.68053 19.7052 -0.211895 5.88953 21.0459 -3.82922 -11.1953 0 0 38.4882 50.178 32.4015 -29.6607 -1.42109e-014 0 -11.3383 -15.6185 28.169 -23.3476 7.10543e-015 0 -0.125316 -12.8541 2.06345 9.17543 0 0 -3.95358 12.7221 -0.339213 0 -39.1216 0 -2.80652 19.2312 -0.42389 0 -35.3569 -2.84217e-014 8.26608 -25.0701 11.2866 1.77636e-015 -5.96403 13.7631 -1.73937e-016 -1.98785e-016 -0 -9.17543 0 0 -2.21032 -18.5743 2.23464 3.55271e-015 -39.1216 1.42109e-014 9.88997 32.3622 -6.84311 -3.55271e-015 -35.3569 0 -1.76746 -12.2074 -17.6269 0 -5.96403 13.7631 -3.97569e-016 7.95139e-016 9.54166e-015 
